# xmcd
#
# Track frame offsets:
#	150
#	23171
#	35432
#	52330
#	78025
#	107840
#	120407
#	154687
#	171898
#	192833
#	215321
#	228985
#	248496
#	271588
#	302112
#
# Disc length: 4203 seconds
#
# Revision: 1
# Processed by: cddbd v1.5.1PL2 Copyright (c) Steve Scherf et al.
# Submitted via: EasyCDDAExtractor 9.0.0.1
#
DISCID=b710690f
DTITLE=Alice Cooper - Veledrome Arena Winnipeg 02-07-75
DYEAR=1975
DGENRE=Hard Rock
TTITLE0=Welcome To My Nightmare
TTITLE1=Years Ago - No More Mr Nice Guy
TTITLE2=Years Ago - Billion Dollar Babies
TTITLE3=Years Ago - I'm Eighteen
TTITLE4=Years Ago - Some Folks
TTITLE5=Cold Ethyl
TTITLE6=Only Women Bleed
TTITLE7=Devil's Food
TTITLE8=The Black Widow
TTITLE9=Steven
TTITLE10=Welcome To My Nightmare Reprise - Escape Intro
TTITLE11=Escape
TTITLE12=School's Out
TTITLE13=The Department Of Youth
TTITLE14=Bonus I'm A Boy
EXTD=
EXTT0=
EXTT1=
EXTT2=
EXTT3=
EXTT4=
EXTT5=
EXTT6=
EXTT7=
EXTT8=
EXTT9=
EXTT10=
EXTT11=
EXTT12=
EXTT13=
EXTT14=
PLAYORDER=
